Source: The.Lord.of.the.Rings.The.Return.of.the.King.2003.720p.Bluray.x264-CBGB

Subs: Croatian, Danish, Dutch, English (Hearing Impaired), English, Finnish, French, Greek, Italian, Persian, Polish, Romanian, Russian, Serbian, Slovenian, Spanish, Swedish and Vietnamese.

Sample and Screens included.

General
Complete name                    : The Lord of the Rings-The Return of the King-720p x264 BRRip 2003-CC.mp4
Format                           : MPEG-4
Format profile                   : Base Media
Codec ID                         : isom
File size                        : 3.41 GiB
Duration                         : 3h 21mn
Overall bit rate                 : 2 426 Kbps
Encoded date                     : UTC 2012-04-22 15:14:57

Video
ID                               : 1
Format                           : AVC
Format/Info                      : Advanced Video Codec
Format profile                   : High@L3.1
Format settings, CABAC           : Yes
Format settings, ReFrames        : 5 frames
Codec ID                         : avc1
Codec ID/Info                    : Advanced Video Coding
Duration                         : 3h 21mn
Bit rate mode                    : Variable
Bit rate                         : 2 039 Kbps
Maximum bit rate                 : 24.8 Mbps
Width                            : 1 280 pixels
Height                           : 528 pixels
Display aspect ratio             : 2.40:1
Frame rate mode                  : Variable
Frame rate                       : 23.976 fps
Minimum frame rate               : 19.048 fps
Maximum frame rate               : 24.390 fps
Resolution                       : 24 bits
Colorimetry                      : 4:2:0
Scan type                        : Progressive
Bits/(Pixel*Frame)               : 0.126
Stream size                      : 2.86 GiB (84%)
Writing library                  : x264 core 112

Audio
ID                               : 2
Format                           : AAC
Format/Info                      : Advanced Audio Codec
Format version                   : Version 4
Format profile                   : LC
Format settings, SBR             : No
Codec ID                         : 40
Duration                         : 3h 21mn
Bit rate mode                    : Variable
Bit rate                         : 384 Kbps
Maximum bit rate                 : 564 Kbps
Channel(s)                       : 6 channels
Channel positions                : Front: L C R, Rear: L R, LFE
Sampling rate                    : 48.0 KHz
Resolution                       : 16 bits
Stream size                      : 552 MiB (16%)
Language                         : English

Enjoy...

Requested by Maincore.